<svg xmlns="http://www.w3.org/2000/svg" viewBox="0 0 400 240" preserveAspectRatio="xMidYMid slice"><defs></defs><rect width="400" height="240" fill="#e1dcd2"/><rect y="170" width="400" height="70" fill="#8f7255"/><rect y="166" width="400" height="6" fill="#c6c2b9"/><rect x="260" y="40" width="100" height="6" fill="#6b4a33"/><rect x="260" y="80" width="100" height="6" fill="#6b4a33"/><rect x="270" y="20" width="14" height="20" fill="#b0401e"/><rect x="290" y="14" width="14" height="26" fill="#3f6b45"/><rect x="272" y="56" width="18" height="24" fill="#3a1d17"/><rect x="296" y="60" width="14" height="20" fill="#c78a5c"/><g transform="translate(50 75) scale(0.75)"><rect x="0" y="40" width="300" height="10" rx="4" fill="#7a5a40"/><rect x="12" y="50" width="80" height="78" rx="4" fill="#624833"/><line x1="12" y1="76" x2="92" y2="76" stroke="#7a5a40" stroke-width="2"/><line x1="12" y1="102" x2="92" y2="102" stroke="#7a5a40" stroke-width="2"/><rect x="280" y="50" width="8" height="78" fill="#624833"/><rect x="120" y="8" width="90" height="32" rx="3" fill="#2b2b2e"/><rect x="125" y="12" width="80" height="24" fill="#6f8aa0"/><line x1="250" y1="40" x2="266" y2="0" stroke="#2b2320" stroke-width="3"/><circle cx="266" cy="0" r="9" fill="#e8a317"/></g></svg>