<svg xmlns="http://www.w3.org/2000/svg" viewBox="0 0 400 240" preserveAspectRatio="xMidYMid slice"><defs></defs><rect width="400" height="240" fill="#efe8dc"/><rect y="170" width="400" height="70" fill="#b79872"/><rect y="166" width="400" height="6" fill="#d2ccc2"/><line x1="200" y1="0" x2="200" y2="30" stroke="#2b2320" stroke-width="2"/><path d="M170 52 L230 52 L218 30 L182 30 Z" fill="#e8a317"/><g transform="translate(90 70) scale(0.75)"><rect x="0" y="48" width="6" height="52" rx="2" fill="#4a2820"/><rect x="0" y="92" width="36" height="8" rx="2" fill="#6b4a33"/><rect x="4" y="100" width="5" height="44" fill="#4a2820"/><rect x="27" y="100" width="5" height="44" fill="#4a2820"/><rect x="294" y="48" width="6" height="52" rx="2" fill="#4a2820"/><rect x="264" y="92" width="36" height="8" rx="2" fill="#6b4a33"/><rect x="268" y="100" width="5" height="44" fill="#4a2820"/><rect x="291" y="100" width="5" height="44" fill="#4a2820"/><rect x="40" y="40" width="220" height="14" rx="4" fill="#8a5a3c"/><rect x="58" y="54" width="10" height="90" fill="#68442d"/><rect x="232" y="54" width="10" height="90" fill="#68442d"/></g><g transform="translate(360 160) scale(1)"><g transform="translate(0 0) scale(0.8)"><ellipse cx="0" cy="-36" rx="9" ry="34" fill="#3f6b45" transform="rotate(-50)"/><ellipse cx="0" cy="-36" rx="9" ry="34" fill="#4d7d52" transform="rotate(-25)"/><ellipse cx="0" cy="-36" rx="9" ry="34" fill="#3f6b45" transform="rotate(0)"/><ellipse cx="0" cy="-36" rx="9" ry="34" fill="#4d7d52" transform="rotate(25)"/><ellipse cx="0" cy="-36" rx="9" ry="34" fill="#3f6b45" transform="rotate(50)"/><path d="M-18 0 L18 0 L13 36 L-13 36 Z" fill="#a8603f"/></g></g></svg>